<svg id="flag_change_language" data-name="flag change language" xmlns="http://www.w3.org/2000/svg" width="30.526" height="20" viewBox="0 0 30.526 20">
  <g id="cambodia">
    <path id="Path_4117" data-name="Path 4117" d="M30,108.276H.526A.526.526,0,0,1,0,107.75V88.8a.526.526,0,0,1,.526-.526H30a.526.526,0,0,1,.526.526V107.75A.526.526,0,0,1,30,108.276Z" transform="translate(0 -88.276)" fill="#41479b"/>
    <rect id="Rectangle_1531" data-name="Rectangle 1531" width="30.526" height="10.526" transform="translate(0 4.737)" fill="#ff4b55"/>
    <path id="Path_4118" data-name="Path 4118" d="M149.19,189.542V188.8h-.249v-.5h-.249v-.5h-.249v-.5H147.7v-1.493h0l.249-.249v-.746H147.7v-.5h-.249v-.746H147.2v-.5h-.249v-.5H146.7v-.249h-.5v.249h-.249v.5h-.249v.5h-.249v.746h-.249v.5h-1.493v-.746h-.249v-.746h-.249v-.746h-.249v-.5h-.249v-.5h-.249v-.249h-.124v-.249H142.1v.249h-.124v.249h-.249v.5h-.249v.5h-.249v.746h-.249v.746h-.249v.746h-1.492v-.5h-.249v-.746h-.249v-.5h-.249v-.5h-.249v-.249h-.5v.249H137.5v.5h-.249v.5H137v.746h-.249v.5H136.5v.746l.249.249h0V187.3h-.746v.5h-.249v.5h-.249v.5h-.249v.746h-.249v.746h14.427v-.746Z" transform="translate(-126.962 -175.551)" fill="#f5f5f5"/>
  </g>
  <g id="united-kingdom" transform="translate(0)">
    <path id="Path_4150" data-name="Path 4150" d="M30,108.276H.526A.526.526,0,0,1,0,107.75V88.8a.526.526,0,0,1,.526-.526H30a.526.526,0,0,1,.526.526V107.75A.526.526,0,0,1,30,108.276Z" transform="translate(0 -88.276)" fill="#41479b"/>
    <path id="Path_4151" data-name="Path 4151" d="M30.526,88.8A.526.526,0,0,0,30,88.276H27.645l-9.751,6.388V88.276H12.631v6.388l-9.75-6.388H.526A.526.526,0,0,0,0,88.8v1.361l8.365,5.481H0v5.263H8.365L0,106.388v1.361a.526.526,0,0,0,.526.526H2.881l9.751-6.388v6.388h5.263v-6.388l9.751,6.388H30a.526.526,0,0,0,.526-.526v-1.361l-8.365-5.481h8.365V95.644H22.161l8.365-5.481Z" transform="translate(0 -88.276)" fill="#f5f5f5"/>
    <g id="Group_3029" data-name="Group 3029">
      <path id="Path_4152" data-name="Path 4152" d="M30.526,96.7H16.842V88.276H13.684V96.7H0v3.158H13.684v8.421h3.158V99.855H30.526Z" transform="translate(0 -88.276)" fill="#ff4b55"/>
      <path id="Path_4153" data-name="Path 4153" d="M10.9,300.138.25,307.054a.52.52,0,0,0,.511.453h.725l11.351-7.368H10.9Z" transform="translate(-0.235 -287.506)" fill="#ff4b55"/>
      <path id="Path_4154" data-name="Path 4154" d="M315.893,300.138H313.96l11.335,7.358a.521.521,0,0,0,.473-.515v-.433Z" transform="translate(-295.241 -287.506)" fill="#ff4b55"/>
      <path id="Path_4155" data-name="Path 4155" d="M0,90.193l9.646,6.261h1.933L.307,89.137A.524.524,0,0,0,0,89.612Z" transform="translate(0 -89.086)" fill="#ff4b55"/>
      <path id="Path_4156" data-name="Path 4156" d="M302.071,95.645l10.68-6.933a.519.519,0,0,0-.508-.436h-.754l-11.351,7.368Z" transform="translate(-282.243 -88.277)" fill="#ff4b55"/>
    </g>
  </g>
</svg>
