<svg id="flag_change_language" data-name="flag change language" xmlns="http://www.w3.org/2000/svg" width="30.526" height="20" viewBox="0 0 30.526 20">
  <g id="cambodia">
    <path id="Path_4117" data-name="Path 4117" d="M30,108.276H.526A.526.526,0,0,1,0,107.75V88.8a.526.526,0,0,1,.526-.526H30a.526.526,0,0,1,.526.526V107.75A.526.526,0,0,1,30,108.276Z" transform="translate(0 -88.276)" fill="#41479b"/>
    <rect id="Rectangle_1531" data-name="Rectangle 1531" width="30.526" height="10.526" transform="translate(0 4.737)" fill="#ff4b55"/>
    <path id="Path_4118" data-name="Path 4118" d="M149.19,189.542V188.8h-.249v-.5h-.249v-.5h-.249v-.5H147.7v-1.493h0l.249-.249v-.746H147.7v-.5h-.249v-.746H147.2v-.5h-.249v-.5H146.7v-.249h-.5v.249h-.249v.5h-.249v.5h-.249v.746h-.249v.5h-1.493v-.746h-.249v-.746h-.249v-.746h-.249v-.5h-.249v-.5h-.249v-.249h-.124v-.249H142.1v.249h-.124v.249h-.249v.5h-.249v.5h-.249v.746h-.249v.746h-.249v.746h-1.492v-.5h-.249v-.746h-.249v-.5h-.249v-.5h-.249v-.249h-.5v.249H137.5v.5h-.249v.5H137v.746h-.249v.5H136.5v.746l.249.249h0V187.3h-.746v.5h-.249v.5h-.249v.5h-.249v.746h-.249v.746h14.427v-.746Z" transform="translate(-126.962 -175.551)" fill="#f5f5f5"/>
  </g>
</svg>
